<?xml version="1.0" encoding="UTF-8"?>
<svg xmlns="http://www.w3.org/2000/svg" height="32" width="32" viewBox="0 0 170 170">
  <g id="Layer_1-2" data-name="Layer 1">
    <path d="m155.77,69.18c3.8-11.5,2.5-24.1-3.6-34.6-9.2-16.1-27.8-24.3-45.9-20.4-15.8-17.6-42.8-19-60.3-3.2-5.6,5-9.7,11.4-12,18.5-12,2.4-22.2,9.8-28.2,20.4-9.3,16-7.2,36.2,5.2,50-3.8,11.5-2.5,24.1,3.6,34.6,9.2,16.1,27.8,24.3,45.9,20.4,8.1,9.1,19.6,14.2,31.8,14.2,18.6,0,35-12,40.7-29.6,11.9-2.4,22.1-9.9,28.2-20.4,9.1-16.1,7-36.2-5.4-49.9h0Zm-63.5,88.8c-7.4,0-14.6-2.6-20.3-7.3l1-.6,33.7-19.4c1.7-1,2.8-2.8,2.8-4.8v-47.5l14.2,8.2c.1.1.2.2.3.4v39.3c-.1,17.5-14.3,31.7-31.7,31.7h0Zm-68.1-29.1c-3.7-6.4-5-13.9-3.8-21.2l1,.6,33.7,19.4c1.7,1,3.8,1,5.5,0l41.2-23.7v16.4c0,.2-.1.3-.2.4l-34.1,19.7c-15.2,8.8-34.5,3.6-43.3-11.6h0ZM15.27,55.58c3.8-6.4,9.7-11.4,16.7-13.9v40c0,2,1,3.8,2.7,4.8l41,23.6-14.2,8.2c-.2.1-.3.1-.5,0l-34-19.6c-15.2-8.8-20.4-28.1-11.7-43.2v.1Zm116.9,27.2l-41-23.9,14.2-8.2c.2-.1.3-.1.5,0l34,19.7c15.1,8.7,20.3,28.1,11.6,43.2-3.7,6.4-9.5,11.3-16.4,13.8v-40c0-1.9-1.1-3.7-2.9-4.6h0Zm14.2-21.3l-1-.6-33.6-19.6c-1.7-1-3.8-1-5.5,0l-41.2,23.7v-16.4c0-.2.1-.3.2-.4l34-19.6c15.2-8.7,34.5-3.5,43.3,11.6,3.7,6.4,5,13.9,3.8,21.2v.1h0Zm-89,29.1l-14.2-8.2c-.1-.1-.2-.2-.3-.4v-39.2c0-17.5,14.2-31.7,31.7-31.7,7.4,0,14.5,2.6,20.2,7.3l-1,.6-33.6,19.5c-1.7,1-2.8,2.8-2.8,4.8v47.3Zm7.7-16.7l18.3-10.6,18.4,10.6v21.1l-18.3,10.6-18.4-10.5v-21.2h0Z"/>
  </g>
</svg>